# xmcd
#
# Track frame offsets: 
#        300
#        10984
#        28539
#        40534
#        58648
#        75178
#        85493
#        101508
#        119040
#        132852
#        150776
#
# Disc length: 2147 seconds
#
# Revision: 0
# Processed by: cddbd v1.5.2PL0 Copyright (c) Steve Scherf et al.
# Submitted via: ExactAudioCopy v0.99pb3
#
DISCID=78085f0b
DTITLE=Emetrex - Wish Me Dead
DYEAR=2005
DGENRE=Seriously Groovy
TTITLE0=I Think The Sun Makes Me Move
TTITLE1=Hammer In My Skull
TTITLE2=Secret Parts
TTITLE3=Wish Me Dead
TTITLE4=Fade, Fade, Fade
TTITLE5=Shepherd's Pantry
TTITLE6=Resonate (With Hate)
TTITLE7=Molly Hatchet
TTITLE8=Harsh Kingdom
TTITLE9=Blue and Green
TTITLE10=Like A Dog Beneath Your Feet
EXTD=
EXTT0=
EXTT1=
EXTT2=
EXTT3=
EXTT4=
EXTT5=
EXTT6=
EXTT7=
EXTT8=
EXTT9=
EXTT10=
PLAYORDER=
